<?xml version="1.0" standalone="no"?><!DOCTYPE svg PUBLIC "-//W3C//DTD SVG 1.1//EN" "http://www.w3.org/Graphics/SVG/1.1/DTD/svg11.dtd"><svg t="1612684416099" class="icon" viewBox="0 0 1024 1024" version="1.1" xmlns="http://www.w3.org/2000/svg" p-id="5196" data-darkreader-inline-fill="" xmlns:xlink="http://www.w3.org/1999/xlink" width="200" height="200"><defs><style type="text/css">[data-darkreader-inline-fill] { fill: var(--darkreader-inline-fill)  !important; }
</style></defs><path d="M904 1024H120c-66.168 0-120-53.832-120-120V120C0 53.832 53.832 0 120 0h784c66.168 0 120 53.832 120 120v784c0 66.168-53.832 120-120 120zM120 4C56.038 4 4 56.038 4 120v784c0 63.962 52.038 116 116 116h784c63.962 0 116-52.038 116-116V120c0-63.962-52.038-116-116-116H120z" fill="#D8DDE3" p-id="5197" data-darkreader-inline-fill="" style="--darkreader-inline-fill:#3a3c3e;"></path><path d="M802 642c-16.568 0-30-13.432-30-30V412c0-16.568 13.432-30 30-30s30 13.432 30 30v200c0 16.568-13.432 30-30 30zM672 592c-16.568 0-30-13.432-30-30v-100c0-16.568 13.432-30 30-30s30 13.432 30 30v100c0 16.568-13.432 30-30 30z" fill="#FF4B07" p-id="5198" data-darkreader-inline-fill="" style="--darkreader-inline-fill:#b24319;"></path><path d="M338 672h-116c-16.568 0-30-13.432-30-30V382c0-16.568 13.432-30 30-30h116c16.568 0 30 13.432 30 30v260c0 16.568-13.432 30-30 30z m-86-60h56V412h-56v200z" fill="#20263B" p-id="5199" data-darkreader-inline-fill="" style="--darkreader-inline-fill:#2d303d;"></path><path d="M574.008 831.976c-5.824 0-11.628-1.694-16.652-5.044l-236.8-157.99a30 30 0 0 1-13.35-24.956V380.014a30 30 0 0 1 13.35-24.956l236.8-158a29.996 29.996 0 0 1 46.65 24.956v579.962a30.004 30.004 0 0 1-29.998 30zM367.206 627.938l176.8 117.958v-467.8l-176.8 117.966v231.876z" fill="#20263B" p-id="5200" data-darkreader-inline-fill="" style="--darkreader-inline-fill:#2d303d;"></path></svg>