<?xml version="1.0" standalone="no"?><!DOCTYPE svg PUBLIC "-//W3C//DTD SVG 1.1//EN" "http://www.w3.org/Graphics/SVG/1.1/DTD/svg11.dtd"><svg t="1612747652513" class="icon" viewBox="0 0 1024 1024" version="1.1" xmlns="http://www.w3.org/2000/svg" p-id="2867" data-darkreader-inline-fill="" xmlns:xlink="http://www.w3.org/1999/xlink" width="200" height="200"><defs><style type="text/css">[data-darkreader-inline-fill] { fill: var(--darkreader-inline-fill)  !important; }
</style></defs><path d="M513.4848 851.2c-19.3024 0-38.4-6.5024-54.2208-19.2l-159.1808-127.3856a95.6416 95.6416 0 0 0-59.648-20.9408H175.7184c-47.9744 0-87.04-39.0656-87.04-87.04V419.584c0-47.9744 39.0656-87.04 87.04-87.04h63.6416c20.6848 0 41.1136-6.8608 57.5488-19.3024l164.1984-124.16c26.5216-20.0704 61.4912-23.296 91.2896-8.4992 29.7472 14.7968 48.2816 44.6464 48.2816 77.9264v505.5488c0 33.792-18.8928 63.8464-49.3568 78.4384-12.1344 5.8368-25.0368 8.704-37.8368 8.704z m-22.2208-59.1872c11.008 8.8064 25.1904 10.4448 37.9392 4.3008 12.7488-6.0928 20.3264-18.176 20.3264-32.3072V258.5088c0-13.8752-7.424-25.9072-19.8656-32.1024-12.4416-6.1952-26.4704-4.864-37.5808 3.4816L327.8336 354.048c-25.2928 19.1488-56.7296 29.6448-88.4736 29.6448H175.7184c-19.7632 0-35.84 16.0768-35.84 35.84v177.0496c0 19.7632 16.0768 35.84 35.84 35.84h64.7168c33.1776 0 65.7408 11.4176 91.648 32.1536l159.1808 127.4368z" fill="#4D5156" p-id="2868" data-darkreader-inline-fill="" style="--darkreader-inline-fill:#484c4e;"></path><path d="M841.5744 507.6992l98.8672-98.304a25.56928 25.56928 0 0 0 0.1024-36.1984 25.56928 25.56928 0 0 0-36.1984-0.1024l-98.8672 98.304-98.304-98.8672a25.56928 25.56928 0 0 0-36.1984-0.1024 25.56928 25.56928 0 0 0-0.1024 36.1984l98.304 98.8672-98.8672 98.304a25.56928 25.56928 0 0 0 18.0736 43.7248c6.5024 0 13.056-2.4576 18.0736-7.424l98.8672-98.304 98.304 98.8672c5.0176 5.0176 11.5712 7.5264 18.176 7.5264a25.56928 25.56928 0 0 0 18.176-43.6224l-98.4064-98.8672z" fill="#FF6C6C" p-id="2869" data-darkreader-inline-fill="" style="--darkreader-inline-fill:#831919;"></path></svg>