<?xml version="1.0" standalone="no"?><!DOCTYPE svg PUBLIC "-//W3C//DTD SVG 1.1//EN" "http://www.w3.org/Graphics/SVG/1.1/DTD/svg11.dtd"><svg t="1612773592051" class="icon" viewBox="0 0 1024 1024" version="1.1" xmlns="http://www.w3.org/2000/svg" p-id="1754" data-darkreader-inline-fill="" xmlns:xlink="http://www.w3.org/1999/xlink" width="200" height="200"><defs><style type="text/css"></style></defs><path d="M512 62.389956c-248.312412 0-449.610044 201.297632-449.610044 449.610044s201.297632 449.610044 449.610044 449.610044 449.610044-201.297632 449.610044-449.610044S760.312412 62.389956 512 62.389956zM786.507004 786.507004c-35.672454 35.672454-77.196173 63.672158-123.416867 83.222423-47.821145 20.22667-98.655927 30.482245-151.09116 30.482245-52.435233 0-103.270015-10.255575-151.09116-30.482245-46.220694-19.549242-87.744413-47.549969-123.416867-83.222423-35.672454-35.672454-63.672158-77.196173-83.222423-123.416867-20.22667-47.821145-30.482245-98.655927-30.482245-151.090137 0-52.435233 10.255575-103.270015 30.482245-151.09116 19.549242-46.220694 47.549969-87.744413 83.222423-123.416867 35.672454-35.672454 77.196173-63.672158 123.416867-83.222423 47.821145-20.22667 98.654904-30.482245 151.09116-30.482245 52.435233 0 103.268992 10.255575 151.09116 30.482245 46.220694 19.549242 87.744413 47.549969 123.416867 83.222423 35.672454 35.672454 63.672158 77.196173 83.222423 123.416867 20.22667 47.821145 30.482245 98.655927 30.482245 151.09116 0 52.435233-10.255575 103.268992-30.482245 151.090137C850.179163 709.310831 822.179458 750.83455 786.507004 786.507004zM699.168844 285.84933 583.882144 285.84933c-3.203972 0-5.801123 2.597151-5.801123 5.801123l0 440.698071c0 3.203972 2.597151 5.801123 5.801123 5.801123l115.2867 0c3.203972 0 5.801123-2.597151 5.801123-5.801123L704.969966 291.650453C704.97099 288.446481 702.373839 285.84933 699.168844 285.84933zM440.117856 285.84933 324.830133 285.84933c-3.203972 0-5.801123 2.597151-5.801123 5.801123l0 440.698071c0 3.203972 2.597151 5.801123 5.801123 5.801123L440.117856 738.149647c3.203972 0 5.801123-2.597151 5.801123-5.801123L445.918979 291.650453C445.918979 288.446481 443.321828 285.84933 440.117856 285.84933z" p-id="1755"></path></svg>