<?xml version="1.0" standalone="no"?><!DOCTYPE svg PUBLIC "-//W3C//DTD SVG 1.1//EN" "http://www.w3.org/Graphics/SVG/1.1/DTD/svg11.dtd"><svg t="1612773587594" class="icon" viewBox="0 0 1024 1024" version="1.1" xmlns="http://www.w3.org/2000/svg" p-id="2126" data-darkreader-inline-fill="" xmlns:xlink="http://www.w3.org/1999/xlink" width="200" height="200"><defs><style type="text/css"></style></defs><path d="M512 87.04c76.8 0 148.48 20.48 215.04 56.32 66.56 35.84 112.64 87.04 153.6 153.6 40.96 66.56 56.32 138.24 56.32 215.04s-20.48 148.48-56.32 215.04c-35.84 66.56-87.04 112.64-153.6 153.6-66.56 40.96-138.24 56.32-215.04 56.32s-148.48-20.48-215.04-56.32c-66.56-35.84-112.64-87.04-153.6-153.6-40.96-66.56-56.32-138.24-56.32-215.04s20.48-148.48 56.32-215.04c35.84-66.56 87.04-112.64 153.6-153.6 66.56-35.84 138.24-56.32 215.04-56.32z m0 768c61.44 0 117.76-15.36 174.08-46.08 51.2-30.72 92.16-71.68 122.88-122.88 30.72-51.2 46.08-112.64 46.08-174.08s-15.36-117.76-46.08-174.08c-30.72-51.2-71.68-92.16-122.88-122.88-51.2-30.72-112.64-46.08-174.08-46.08s-117.76 15.36-174.08 46.08c-51.2 30.72-92.16 71.68-122.88 122.88-30.72 51.2-46.08 112.64-46.08 174.08s15.36 117.76 46.08 174.08c30.72 51.2 71.68 92.16 122.88 122.88 56.32 30.72 112.64 46.08 174.08 46.08z m-87.04-153.6V317.44l256 194.56-256 189.44z" p-id="2127"></path></svg>