<?xml version="1.0" standalone="no"?><!DOCTYPE svg PUBLIC "-//W3C//DTD SVG 1.1//EN" "http://www.w3.org/Graphics/SVG/1.1/DTD/svg11.dtd"><svg t="1612747657473" class="icon" viewBox="0 0 1024 1024" version="1.1" xmlns="http://www.w3.org/2000/svg" p-id="1790" data-darkreader-inline-fill="" xmlns:xlink="http://www.w3.org/1999/xlink" width="200" height="200"><defs><style type="text/css">[data-darkreader-inline-fill] { fill: var(--darkreader-inline-fill)  !important; }
</style></defs><path d="M534.002 120.373c-9.072 0-18.606 3.172-26.314 9.534L280.869 325.875H121.643c-34.475 0-62.154 27.679-62.154 61.702l-0.452 268.551c0 34.023 28.131 62.145 62.606 62.145h161.494l223.648 176.016c8.159 6.805 17.241 9.517 26.313 9.517 21.761 0 41.73-16.782 41.73-41.271l0.904-700.873c0.462-24.508-19.951-41.289-41.73-41.289z m-20.873 699.968L321.244 669.276c-10.889-8.612-24.498-13.148-38.107-13.148H120.73l0.913-268.108 159.226-0.442c14.973 0 29.034-5.458 40.375-14.974L514.04 206.121l-0.911 614.22zM696.409 308.633c-14.07-9.516-33.58-5.44-42.652 8.63-9.517 14.052-5.44 33.562 8.629 42.635 48.075 32.215 77.119 85.288 77.119 141.992 0 54.879-27.219 106.605-72.582 138.803-14.07 9.994-17.242 29.044-7.266 43.096 5.901 8.63 15.417 13.166 25.41 13.166 6.344 0 12.688-1.824 17.686-5.9 61.702-44 98.436-114.775 98.436-189.625-0.001-77.118-39.002-149.241-104.78-192.797z" fill="#151515" p-id="1791" data-darkreader-inline-fill="" style="--darkreader-inline-fill:#262627;"></path><path d="M827.503 195.684c-12.705-11.341-32.215-10.438-43.557 2.268-11.34 12.705-10.419 32.198 2.269 43.539 74.407 66.699 117.043 161.502 117.043 260.399 0 96.629-39.003 186.435-109.777 253.134-12.244 11.784-13.148 31.294-1.364 43.539 5.9 6.361 14.07 9.533 22.682 9.533 7.708 0 15.435-2.729 21.318-8.63C919.135 720.541 964.96 614.839 964.96 501.43c0.442-115.678-49.458-227.263-137.457-305.746z" fill="#151515" p-id="1792" data-darkreader-inline-fill="" style="--darkreader-inline-fill:#262627;"></path></svg>